<svg width="20" height="18" viewBox="0 0 20 18" fill="none" xmlns="http://www.w3.org/2000/svg">
  <path d="M10.2066 15.9151C10.2066 15.9151 1.96387 11.3851 1.96387 5.88424C1.96387 4.9118 2.30717 3.9694 2.93537 3.21737C3.56357 2.46534 4.43786 1.95014 5.40948 1.75943C6.3811 1.56872 7.39005 1.71427 8.26464 2.17133C9.13924 2.62839 9.82547 3.36872 10.2066 4.26636C10.5877 3.36872 11.2739 2.62839 12.1485 2.17133C13.0231 1.71427 14.032 1.56872 15.0037 1.75943C15.9753 1.95014 16.8496 2.46534 17.4778 3.21737C18.106 3.9694 18.4493 4.9118 18.4493 5.88424C18.4493 11.3851 10.2066 15.9151 10.2066 15.9151Z" fill="white" />
  <path fill-rule="evenodd" clip-rule="evenodd" d="M9.60452 17.0106L10.2066 15.9151L10.8086 17.0106C10.4337 17.2166 9.97944 17.2166 9.60452 17.0106ZM9.42627 3.05968C9.09659 2.70262 8.70443 2.40116 8.26464 2.17133C7.39005 1.71427 6.3811 1.56872 5.40948 1.75943C4.43785 1.95014 3.56357 2.46534 2.93537 3.21737C2.30717 3.9694 1.96387 4.9118 1.96387 5.88424C1.96387 11.3851 10.2066 15.9151 10.2066 15.9151C9.60452 17.0106 9.60422 17.0104 9.60388 17.0102L9.60304 17.0098L9.60081 17.0086L9.59411 17.0048L9.57188 16.9924C9.55321 16.982 9.52692 16.9671 9.4935 16.948C9.42668 16.9098 9.3313 16.8545 9.21144 16.7829C8.97187 16.6398 8.63364 16.4313 8.22951 16.1642C7.42371 15.6317 6.34365 14.8585 5.25771 13.8994C3.16573 12.0516 0.713867 9.21972 0.713867 5.88424C0.713867 4.61642 1.16162 3.39096 1.97604 2.416C2.79003 1.44155 3.91913 0.778103 5.16872 0.532832C6.41811 0.287601 7.71627 0.474355 8.8436 1.06349C9.35072 1.32851 9.8098 1.66798 10.2066 2.06751C10.6033 1.66798 11.0624 1.32851 11.5695 1.06349C12.6969 0.474355 13.995 0.287601 15.2444 0.532832C16.494 0.778103 17.6231 1.44155 18.4371 2.416C19.2515 3.39096 19.6993 4.61642 19.6993 5.88424C19.6993 9.21972 17.2474 12.0516 15.1554 13.8994C14.0695 14.8585 12.9894 15.6317 12.1836 16.1642C11.7795 16.4313 11.4413 16.6398 11.2017 16.7829C11.0818 16.8545 10.9865 16.9098 10.9196 16.948C10.8862 16.9671 10.8599 16.982 10.8413 16.9924L10.819 17.0048L10.8123 17.0086L10.8101 17.0098L10.8093 17.0102C10.8089 17.0104 10.8086 17.0106 10.2066 15.9151C10.2066 15.9151 18.4493 11.3851 18.4493 5.88424C18.4493 4.9118 18.106 3.9694 17.4778 3.21737C16.8496 2.46534 15.9753 1.95014 15.0037 1.75943C14.032 1.56872 13.0231 1.71427 12.1485 2.17133C11.7087 2.40116 11.3166 2.70262 10.9869 3.05968C10.6609 3.41271 10.396 3.82009 10.2066 4.26636C10.0171 3.82009 9.75222 3.41271 9.42627 3.05968Z" fill="#222222" />
</svg>