<?xml version="1.0" encoding="UTF-8" standalone="no"?>
<svg
   width="26"
   height="23"
   version="1.1"
   id="svg8"
   sodipodi:docname="heart.svg"
   inkscape:version="1.2.1 (9c6d41e410, 2022-07-14)"
   xmlns:inkscape="http://www.inkscape.org/namespaces/inkscape"
   xmlns:sodipodi="http://sodipodi.sourceforge.net/DTD/sodipodi-0.dtd"
   xmlns="http://www.w3.org/2000/svg"
   xmlns:svg="http://www.w3.org/2000/svg">
  <defs
     id="defs12" />
  <sodipodi:namedview
     id="namedview10"
     pagecolor="#ffffff"
     bordercolor="#666666"
     borderopacity="1.0"
     inkscape:showpageshadow="2"
     inkscape:pageopacity="0.0"
     inkscape:pagecheckerboard="0"
     inkscape:deskcolor="#d1d1d1"
     showgrid="false"
     inkscape:zoom="43.565217"
     inkscape:cx="8.8717565"
     inkscape:cy="11.5"
     inkscape:window-width="2560"
     inkscape:window-height="1387"
     inkscape:window-x="1912"
     inkscape:window-y="-8"
     inkscape:window-maximized="1"
     inkscape:current-layer="g6" />
  <g
     class="layer"
     id="g6">
    <title
       id="title2">Layer 1</title>
    <path
       d="m13,21c0,0 -11,-6.05 -11,-13.39c0,-1.29 0.46,-2.55 1.3,-3.56c0.83,-1 2,-1.69 3.3,-1.94c1.29,-0.26 2.64,-0.06 3.81,0.55c1.17,0.61 2.08,1.6 2.59,2.79c0.51,-1.19 1.42,-2.18 2.59,-2.79c1.17,-0.61 2.52,-0.81 3.81,-0.55c1.3,0.25 2.47,0.94 3.3,1.94c0.84,1.01 1.3,2.27 1.3,3.56c0,7.34 -11,13.39 -11,13.39z"
       fill="#d80000"
       stroke="#d80000"
       stroke-linecap="round"
       stroke-linejoin="round"
       stroke-width="4"
       id="path4"
       style="fill:#ffffff;stroke:#ffffff;stroke-opacity:1" />
  </g>
</svg>
