<svg width="138" height="17" viewBox="0 0 138 17" fill="none" xmlns="http://www.w3.org/2000/svg">
<path d="M78.6211 0C79.1961 0 79.6967 0.46358 79.6967 1.04191V2.62731C79.6967 2.81134 79.8776 2.90625 80.0326 2.81273C80.2567 2.67745 80.5476 2.58635 80.9428 2.64804C81.4193 2.72256 81.8882 3.15446 81.9925 3.65395C82.1757 4.52139 81.5224 5.25742 80.7118 5.25742C80.414 5.25742 80.2867 5.21121 80.0798 5.10076C79.907 4.96999 79.6449 5.05992 79.6668 5.2837V6.86095C79.6668 7.43928 79.1961 7.91243 78.6211 7.91243H76.7914C76.6088 7.91243 76.504 7.70217 76.6088 7.54441C76.7655 7.28153 76.8439 6.96608 76.7655 6.62435C76.6612 6.09864 76.2689 5.67806 75.7723 5.57287C74.9358 5.38889 74.1782 6.04607 74.1782 6.86095C74.1782 7.12383 74.2566 7.33415 74.3609 7.54441C74.4657 7.67589 74.3609 7.88615 74.1782 7.88615H72.6101C72.0351 7.88615 71.5645 7.413 71.5645 6.83467V1.0515C71.5645 0.473169 72.0351 0 72.6101 0H78.6211Z" fill="#FF5C16"/>
<path d="M87.5327 7.09756C87.5327 7.67584 87.062 8.14904 86.4871 8.14904H84.9189C84.7363 8.14904 84.6314 8.3593 84.7363 8.51706C84.893 8.77994 84.9713 9.09539 84.893 9.43712C84.7881 9.96283 84.3964 10.3834 83.8998 10.4886C83.0374 10.6726 82.3057 10.0154 82.3057 9.20052C82.3057 8.93764 82.3841 8.72732 82.4883 8.51706C82.5932 8.3593 82.4883 8.14904 82.2792 8.14904H80.7111C80.1361 8.14904 79.666 7.67584 79.666 7.09756V5.25743C79.666 5.07345 79.8751 4.96826 80.0318 5.07345C80.2928 5.23115 80.6068 5.31 80.9467 5.23115C81.4692 5.12602 81.8875 4.73172 81.9917 4.23223C82.1749 3.39107 81.5216 2.6287 80.7111 2.6287C80.4501 2.6287 80.1154 2.74758 80.0462 2.80338C79.8999 2.92076 79.6919 2.81274 79.6919 2.6287V1.05151C79.6919 0.47318 80.1626 0 80.7376 0H86.4871C87.062 0 87.5327 0.47318 87.5327 1.05151V7.09756Z" fill="#0069B5"/>
<path d="M71.5645 8.91438C71.5645 8.33605 72.0351 7.8629 72.6101 7.8629H74.1782C74.3609 7.8629 74.4657 7.65259 74.3609 7.49489C74.2042 7.232 74.1258 6.91656 74.2042 6.57482C74.309 6.04905 74.7008 5.62847 75.1974 5.52334C76.0598 5.33931 76.7914 5.99649 76.7914 6.81142C76.7914 7.07425 76.7131 7.28457 76.6088 7.49489C76.504 7.65259 76.6088 7.8629 76.8179 7.8629H78.3861C78.961 7.8629 79.4311 8.33605 79.4311 8.91438V10.7545C79.4311 10.9385 79.222 11.0436 79.0653 10.9385C78.8043 10.7808 78.4904 10.7019 78.1505 10.7808C77.6279 10.8859 77.2097 11.2802 77.1054 11.7797C76.9222 12.6209 77.5755 13.3832 78.3861 13.3832C78.6471 13.3832 78.9818 13.2644 79.0509 13.2086C79.1972 13.0912 79.4052 13.1992 79.4052 13.3832V14.9604C79.4052 15.5388 78.9345 16.0119 78.3596 16.0119H72.6101C72.0351 16.0119 71.5645 15.5388 71.5645 14.9604V8.91438Z" fill="#0069B5"/>
<path d="M80.4747 16.0101C79.8997 16.0101 79.3991 15.5465 79.3991 14.9682V13.3828C79.3991 13.1987 79.2182 13.1038 79.0632 13.1974C78.8391 13.3326 78.5482 13.4237 78.1535 13.362C77.6765 13.2875 77.2076 12.8556 77.1033 12.3561C76.9201 11.4887 77.5734 10.7527 78.384 10.7527C78.6818 10.7527 78.8092 10.7989 79.016 10.9093C79.1888 11.0401 79.4509 10.9502 79.429 10.7264V9.14913C79.429 8.5708 79.8997 8.09766 80.4747 8.09766H82.3044C82.487 8.09766 82.5918 8.30792 82.487 8.46567C82.3303 8.72856 82.2519 9.044 82.3303 9.38574C82.4346 9.91145 82.8269 10.332 83.3235 10.4372C84.16 10.6212 84.9176 9.96401 84.9176 9.14913C84.9176 8.88625 84.8392 8.67593 84.7349 8.46567C84.6301 8.3342 84.7349 8.12394 84.9176 8.12394H86.4857C87.0607 8.12394 87.5314 8.59708 87.5314 9.17542V14.9586C87.5314 15.5369 87.0607 16.0101 86.4857 16.0101H80.4747Z" fill="#FF5C16"/>
<path d="M64.2664 16.1664C62.979 16.1664 61.8455 15.9139 60.8659 15.4088C59.9003 14.9037 59.1517 14.2163 58.6199 13.3465C58.0881 12.4626 57.8223 11.4595 57.8223 10.3371C57.8223 9.20071 58.0812 8.19759 58.5989 7.32776C59.1307 6.4439 59.8514 5.75645 60.761 5.26541C61.6706 4.76034 62.6991 4.50781 63.8466 4.50781C64.9521 4.50781 65.9457 4.74632 66.8273 5.22332C67.7229 5.6863 68.4296 6.35972 68.9473 7.24358C69.4651 8.11342 69.724 9.15862 69.724 10.3792C69.724 10.5055 69.717 10.6528 69.703 10.8211C69.689 10.9755 69.675 11.1228 69.661 11.2631H60.4881V9.34802H67.9398L66.6803 9.91622C66.6803 9.32698 66.5614 8.8149 66.3235 8.37998C66.0856 7.94506 65.7567 7.60835 65.3369 7.36985C64.9171 7.11732 64.4273 6.99105 63.8676 6.99105C63.3078 6.99105 62.8111 7.11732 62.3772 7.36985C61.9574 7.60835 61.6286 7.95208 61.3907 8.40102C61.1528 8.83594 61.0338 9.35504 61.0338 9.95831V10.4634C61.0338 11.0807 61.1668 11.6278 61.4327 12.1048C61.7125 12.5678 62.0974 12.9256 62.5872 13.1781C63.0909 13.4166 63.6787 13.5359 64.3504 13.5359C64.9521 13.5359 65.4769 13.4447 65.9247 13.2623C66.3865 13.0799 66.8063 12.8063 67.1841 12.4415L68.9263 14.3355C68.4086 14.9248 67.7579 15.3807 66.9742 15.7034C66.1906 16.0121 65.288 16.1664 64.2664 16.1664Z" fill="#0069B5"/>
<path d="M52.3477 15.9977V0.382812H55.6222V15.9977H52.3477Z" fill="#0069B5"/>
<path d="M40.1738 16.0016V14.0234L46.8489 6.11071L47.4156 7.20501H40.3208V4.67969H50.0605V6.65786L43.3854 14.5705L42.7977 13.4762H50.2494V16.0016H40.1738Z" fill="#0069B5"/>
<path d="M28.7773 16.0016V14.0234L35.4524 6.11071L36.0191 7.20501H28.9243V4.67969H38.664V6.65786L31.9889 14.5705L31.4012 13.4762H38.8529V16.0016H28.7773Z" fill="#0069B5"/>
<path d="M19.9079 16.1699C18.9704 16.1699 18.1307 15.9875 17.3891 15.6228C16.6614 15.258 16.0946 14.7038 15.6888 13.9603C15.283 13.2027 15.0801 12.2416 15.0801 11.0772V4.67969H18.3546V10.5932C18.3546 11.5331 18.5505 12.2276 18.9424 12.6766C19.3482 13.1115 19.9149 13.3289 20.6426 13.3289C21.1464 13.3289 21.5942 13.2237 21.986 13.0133C22.3778 12.7888 22.6857 12.4521 22.9096 12.0031C23.1335 11.5402 23.2455 10.9649 23.2455 10.2775V4.67969H26.52V16.0016H23.4134V12.887L23.9801 13.7919C23.6023 14.5776 23.0426 15.1738 22.3009 15.5807C21.5732 15.9735 20.7756 16.1699 19.9079 16.1699Z" fill="#0069B5"/>
<path d="M0 15.9967V1.26562H6.36018C7.6756 1.26562 8.8091 1.48308 9.76068 1.918C10.7123 2.33889 11.4469 2.94918 11.9647 3.74886C12.4825 4.54855 12.7414 5.50256 12.7414 6.6109C12.7414 7.70521 12.4825 8.65221 11.9647 9.45189C11.4469 10.2516 10.7123 10.8689 9.76068 11.3038C8.8091 11.7247 7.6756 11.9351 6.36018 11.9351H1.88916L3.40049 10.3989V15.9967H0ZM3.40049 10.7777L1.88916 9.15727H6.17127C7.2208 9.15727 8.00445 8.9328 8.52222 8.48385C9.03999 8.0349 9.29888 7.41059 9.29888 6.6109C9.29888 5.79718 9.03999 5.16585 8.52222 4.71691C8.00445 4.26796 7.2208 4.04348 6.17127 4.04348H1.88916L3.40049 2.42307V10.7777Z" fill="#0069B5"/>
<path d="M121.242 16.0006V1.26953H124.055L130.31 11.6655H128.82L134.97 1.26953H137.762L137.804 16.0006H134.613L134.592 6.17287H135.18L130.268 14.4433H128.736L123.719 6.17287H124.433V16.0006H121.242Z" fill="#0069B5"/>
<path d="M105.807 16.0006V1.26953H112.167C113.482 1.26953 114.616 1.48699 115.567 1.92191C116.519 2.34279 117.254 2.95308 117.771 3.75277C118.289 4.55246 118.548 5.50647 118.548 6.61481C118.548 7.70911 118.289 8.65611 117.771 9.4558C117.254 10.2415 116.519 10.8447 115.567 11.2656C114.616 11.6865 113.482 11.8969 112.167 11.8969H107.696L109.207 10.4028V16.0006H105.807ZM115.148 16.0006L111.474 10.6553H115.106L118.821 16.0006H115.148ZM109.207 10.7816L107.696 9.18222H111.978C113.027 9.18222 113.811 8.95775 114.329 8.5088C114.847 8.04582 115.106 7.41449 115.106 6.61481C115.106 5.80109 114.847 5.16976 114.329 4.72081C113.811 4.27186 113.027 4.04739 111.978 4.04739H107.696L109.207 2.42697V10.7816Z" fill="#0069B5"/>
<path d="M97.4438 16.2518C96.3103 16.2518 95.2537 16.0694 94.2742 15.7046C93.3086 15.3258 92.469 14.7927 91.7553 14.1052C91.0416 13.4178 90.4818 12.6111 90.076 11.6851C89.6842 10.7592 89.4883 9.74203 89.4883 8.63369C89.4883 7.52536 89.6842 6.50821 90.076 5.58226C90.4818 4.6563 91.0416 3.8496 91.7553 3.16215C92.483 2.4747 93.3296 1.94859 94.2952 1.58382C95.2607 1.20502 96.3173 1.01562 97.4647 1.01562C98.7382 1.01562 99.8857 1.2401 100.907 1.68905C101.943 2.12396 102.81 2.76932 103.51 3.62513L101.327 5.64539C100.823 5.07018 100.264 4.64227 99.6478 4.36168C99.0321 4.06706 98.3604 3.91975 97.6327 3.91975C96.947 3.91975 96.3173 4.03199 95.7435 4.25646C95.1698 4.48093 94.673 4.80361 94.2532 5.2245C93.8334 5.64539 93.5045 6.14344 93.2666 6.71865C93.0427 7.29387 92.9308 7.93221 92.9308 8.63369C92.9308 9.33517 93.0427 9.97352 93.2666 10.5487C93.5045 11.1239 93.8334 11.622 94.2532 12.0429C94.673 12.4638 95.1698 12.7865 95.7435 13.0109C96.3173 13.2354 96.947 13.3476 97.6327 13.3476C98.3604 13.3476 99.0321 13.2073 99.6478 12.9267C100.264 12.6321 100.823 12.1902 101.327 11.601L103.51 13.6212C102.81 14.477 101.943 15.1294 100.907 15.5783C99.8857 16.0273 98.7312 16.2518 97.4438 16.2518Z" fill="#0069B5"/>
</svg>
