<svg width="23" height="24" viewBox="0 0 23 24" fill="none" xmlns="http://www.w3.org/2000/svg">
<path d="M10.5367 2.94529C10.7612 2.25431 11.7388 2.2543 11.9633 2.94529L13.6074 8.00532C13.7078 8.31434 13.9958 8.52356 14.3207 8.52356H19.6411C20.3677 8.52356 20.6697 9.45327 20.082 9.88032L15.7776 13.0076C15.5148 13.1986 15.4048 13.5371 15.5052 13.8461L17.1493 18.9062C17.3738 19.5971 16.5829 20.1717 15.9952 19.7447L11.6908 16.6174C11.428 16.4264 11.072 16.4264 10.8092 16.6174L6.50484 19.7447C5.91706 20.1717 5.12619 19.5971 5.35071 18.9062L6.99481 13.8461C7.09522 13.5371 6.98522 13.1986 6.72236 13.0076L2.41804 9.88032C1.83025 9.45327 2.13233 8.52356 2.85888 8.52356H8.17931C8.50423 8.52356 8.7922 8.31434 8.8926 8.00532L10.5367 2.94529Z" fill="#D0D0D0"/>
<path fill-rule="evenodd" clip-rule="evenodd" d="M14.25 8.51897C13.9546 8.49113 13.7004 8.29045 13.6074 8.00405L11.9633 2.94402C11.7388 2.25303 10.7612 2.25304 10.5367 2.94402L8.89258 8.00405C8.79218 8.31307 8.50421 8.52229 8.17929 8.52229H2.85886C2.13232 8.52229 1.83024 9.452 2.41802 9.87905L6.72234 13.0063C6.98521 13.1973 7.0952 13.5358 6.99479 13.8448L5.35069 18.9049C5.12618 19.5959 5.91704 20.1705 6.50482 19.7434L10.8091 16.6161C11.072 16.4252 11.428 16.4252 11.6908 16.6161L14.25 18.4755V8.51897Z" fill="#FFCC00"/>
</svg>
