<svg width="30" height="30" viewBox="0 0 30 30" fill="none" xmlns="http://www.w3.org/2000/svg">
<path d="M29.5 16H26.487C26.8179 15.5698 26.9982 15.0427 27 14.5H27.75C28.0815 14.5 28.3995 14.3683 28.6339 14.1339C28.8683 13.8995 29 13.5815 29 13.25C29 12.9185 28.8683 12.6005 28.6339 12.3661C28.3995 12.1317 28.0815 12 27.75 12H21.5C21.3674 12 21.2402 12.0527 21.1464 12.1464C21.0527 12.2402 21 12.3674 21 12.5V14.5C21.0018 15.0427 21.1821 15.5698 21.513 16H18.5V14.5C18.5 14.3674 18.4473 14.2402 18.3536 14.1464C18.2598 14.0527 18.1326 14 18 14H17.5V5H18C18.1326 5 18.2598 4.94732 18.3536 4.85355C18.4473 4.75979 18.5 4.63261 18.5 4.5V0.5C18.5 0.367392 18.4473 0.240215 18.3536 0.146447C18.2598 0.0526784 18.1326 0 18 0H3C2.86739 0 2.74021 0.0526784 2.64645 0.146447C2.55268 0.240215 2.5 0.367392 2.5 0.5V4.5C2.5 4.63261 2.55268 4.75979 2.64645 4.85355C2.74021 4.94732 2.86739 5 3 5H3.5V14H3C2.86739 14 2.74021 14.0527 2.64645 14.1464C2.55268 14.2402 2.5 14.3674 2.5 14.5V16H0.5C0.367392 16 0.240215 16.0527 0.146447 16.1464C0.0526784 16.2402 0 16.3674 0 16.5V19.5C0 19.6326 0.0526784 19.7598 0.146447 19.8536C0.240215 19.9473 0.367392 20 0.5 20H1.5V29.5C1.5 29.6326 1.55268 29.7598 1.64645 29.8536C1.74021 29.9473 1.86739 30 2 30H28C28.1326 30 28.2598 29.9473 28.3536 29.8536C28.4473 29.7598 28.5 29.6326 28.5 29.5V20H29.5C29.6326 20 29.7598 19.9473 29.8536 19.8536C29.9473 19.7598 30 19.6326 30 19.5V16.5C30 16.3674 29.9473 16.2402 29.8536 16.1464C29.7598 16.0527 29.6326 16 29.5 16V16ZM28 13.25C28 13.3163 27.9737 13.3799 27.9268 13.4268C27.8799 13.4737 27.8163 13.5 27.75 13.5H27V13H27.75C27.8163 13 27.8799 13.0263 27.9268 13.0732C27.9737 13.1201 28 13.1837 28 13.25ZM22 14.5V13H26V14.5C26 14.8978 25.842 15.2794 25.5607 15.5607C25.2794 15.842 24.8978 16 24.5 16H23.5C23.1022 16 22.7206 15.842 22.4393 15.5607C22.158 15.2794 22 14.8978 22 14.5V14.5ZM3.5 1H17.5V4H3.5V1ZM10 7H11V8H10V7ZM11.5 6H8.5V5H12.5V6H11.5ZM4.5 5H7.5V6C7.5 6.26522 7.60536 6.51957 7.79289 6.70711C7.98043 6.89464 8.23478 7 8.5 7H9V8.5C9 8.63261 9.05268 8.75979 9.14645 8.85355C9.24021 8.94732 9.36739 9 9.5 9H11.5C11.6326 9 11.7598 8.94732 11.8536 8.85355C11.9473 8.75979 12 8.63261 12 8.5V7H12.5C12.7652 7 13.0196 6.89464 13.2071 6.70711C13.3946 6.51957 13.5 6.26522 13.5 6V5H16.5V14H12.987C13.3179 13.5698 13.4982 13.0427 13.5 12.5H14.25C14.5815 12.5 14.8995 12.3683 15.1339 12.1339C15.3683 11.8995 15.5 11.5815 15.5 11.25C15.5 10.9185 15.3683 10.6005 15.1339 10.3661C14.8995 10.1317 14.5815 10 14.25 10H8C7.86739 10 7.74021 10.0527 7.64645 10.1464C7.55268 10.2402 7.5 10.3674 7.5 10.5V12.5C7.50184 13.0427 7.6821 13.5698 8.013 14H4.5V5ZM8.5 12.5V11H12.5V12.5C12.5 12.8978 12.342 13.2794 12.0607 13.5607C11.7794 13.842 11.3978 14 11 14H10C9.60218 14 9.22064 13.842 8.93934 13.5607C8.65804 13.2794 8.5 12.8978 8.5 12.5ZM13.5 11H14.25C14.3163 11 14.3799 11.0263 14.4268 11.0732C14.4737 11.1201 14.5 11.1837 14.5 11.25C14.5 11.3163 14.4737 11.3799 14.4268 11.4268C14.3799 11.4737 14.3163 11.5 14.25 11.5H13.5V11ZM3.5 15H17.5V16H3.5V15ZM27.5 29H2.5V20H27.5V29ZM29 19H1V17H29V19Z" fill="white"/>
<path d="M8.5 2H12.5V3H8.5V2Z" fill="white"/>
<path d="M13.5 2H14.5V3H13.5V2Z" fill="white"/>
<path d="M15.5 2H16.5V3H15.5V2Z" fill="white"/>
<path d="M6.5 2H7.5V3H6.5V2Z" fill="white"/>
<path d="M4.5 2H5.5V3H4.5V2Z" fill="white"/>
<path d="M22.2002 11H23.2002C23.1997 10.9178 23.2164 10.8364 23.2492 10.7611C23.282 10.6857 23.3302 10.6181 23.3907 10.5625C23.6543 10.2714 23.8003 9.89271 23.8003 9.5C23.8003 9.10729 23.6543 8.72861 23.3907 8.4375C23.3302 8.3819 23.282 8.31425 23.2492 8.2389C23.2164 8.16356 23.1997 8.08218 23.2002 8H22.2002C22.197 8.39329 22.3434 8.77312 22.6097 9.0625C22.6695 9.11861 22.7172 9.18638 22.7498 9.26163C22.7823 9.33688 22.7991 9.418 22.7991 9.5C22.7991 9.582 22.7823 9.66312 22.7498 9.73837C22.7172 9.81362 22.6695 9.88139 22.6097 9.9375C22.3434 10.2269 22.197 10.6067 22.2002 11V11Z" fill="white"/>
<path d="M24.2002 11H25.2002C25.1997 10.9178 25.2164 10.8364 25.2492 10.7611C25.282 10.6857 25.3302 10.6181 25.3907 10.5625C25.6543 10.2714 25.8003 9.89271 25.8003 9.5C25.8003 9.10729 25.6543 8.72861 25.3907 8.4375C25.3302 8.3819 25.282 8.31425 25.2492 8.2389C25.2164 8.16356 25.1997 8.08218 25.2002 8H24.2002C24.197 8.39329 24.3434 8.77312 24.6097 9.0625C24.6695 9.11861 24.7172 9.18638 24.7498 9.26163C24.7823 9.33688 24.7991 9.418 24.7991 9.5C24.7991 9.582 24.7823 9.66312 24.7498 9.73837C24.7172 9.81362 24.6695 9.88139 24.6097 9.9375C24.3434 10.2269 24.197 10.6067 24.2002 11V11Z" fill="white"/>
<path d="M4 28H26C26.1326 28 26.2598 27.9473 26.3536 27.8536C26.4473 27.7598 26.5 27.6326 26.5 27.5V21.5C26.5 21.3674 26.4473 21.2402 26.3536 21.1464C26.2598 21.0527 26.1326 21 26 21H4C3.86739 21 3.74021 21.0527 3.64645 21.1464C3.55268 21.2402 3.5 21.3674 3.5 21.5V27.5C3.5 27.6326 3.55268 27.7598 3.64645 27.8536C3.74021 27.9473 3.86739 28 4 28ZM4.5 22H25.5V27H4.5V22Z" fill="white"/>
</svg>
