<svg height="496pt" viewBox="-32 0 496 496" width="496pt" xmlns="http://www.w3.org/2000/svg" fill="#fff"><path d="m392 112h-72.40625c.238281-2.640625.40625-5.296875.40625-8v-64c0-13.230469-10.769531-24-24-24h-24v-16h-24c-13.230469 0-24 10.769531-24 24s10.769531 24 24 24h24v-16h24c4.414062 0 8 3.59375 8 8v64c0 2.703125-.175781 5.367188-.472656 8h-175.054688c-.296875-2.632812-.472656-5.296875-.472656-8v-64c0-4.40625 3.585938-8 8-8h24v16h24c13.230469 0 24-10.769531 24-24s-10.769531-24-24-24h-24v16h-24c-13.230469 0-24 10.769531-24 24v64c0 2.703125.167969 5.359375.40625 8h-72.40625c-22.054688 0-40 17.945312-40 40v256c0 22.054688 17.945312 40 40 40h64v32h-32v16h288v-16h-32v-32h64c22.054688 0 40-17.945312 40-40v-256c0-22.054688-17.945312-40-40-40zm-136-80h-8c-4.414062 0-8-3.59375-8-8s3.585938-8 8-8h8zm-80-16h8c4.414062 0 8 3.59375 8 8s-3.585938 8-8 8h-8zm123.800781 112c-9.226562 25.984375-32.914062 45.144531-61.375 47.671875-3.402343-9.121094-12.128906-15.671875-22.425781-15.671875s-19.023438 6.550781-22.425781 15.671875c-28.460938-2.535156-52.140625-21.6875-61.375-47.671875zm-83.800781 64c-4.414062 0-8-3.59375-8-8s3.585938-8 8-8 8 3.59375 8 8-3.585938 8-8 8zm-176-64h75.40625c9.898438 34.824219 40.707031 60.863281 77.960938 63.664062 2.359374 6.9375 7.746093 12.40625 14.632812 14.863282v33.472656c0 4.40625-3.585938 8-8 8h-132c-19.847656 0-36 16.152344-36 36s16.152344 36 36 36h188v16h37.480469c9.007812 18.886719 28.238281 32 50.519531 32 30.871094 0 56-25.121094 56-56s-25.128906-56-56-56c-22.28125 0-41.503906 13.113281-50.519531 32h-37.480469v16h-188c-11.03125 0-20-8.976562-20-20s8.96875-20 20-20h132c13.230469 0 24-10.769531 24-24v-33.472656c6.886719-2.457032 12.273438-7.925782 14.632812-14.863282 37.253907-2.800781 68.054688-28.839843 77.960938-63.664062h75.40625c13.230469 0 24 10.769531 24 24v232h-400v-232c0-13.230469 10.769531-24 24-24zm248.640625 192h-16.640625v-16h16.640625c-.375 2.625-.640625 5.28125-.640625 8s.265625 5.375.640625 8zm15.359375-8c0-22.054688 17.945312-40 40-40s40 17.945312 40 40-17.945312 40-40 40-40-17.945312-40-40zm8 168h-192v-32h192zm80-48h-352c-13.230469 0-24-10.769531-24-24v-8h400v8c0 13.230469-10.769531 24-24 24zm0 0"/><path d="m344 336c13.230469 0 24-10.769531 24-24s-10.769531-24-24-24-24 10.769531-24 24 10.769531 24 24 24zm0-32c4.414062 0 8 3.59375 8 8s-3.585938 8-8 8-8-3.59375-8-8 3.585938-8 8-8zm0 0"/><path d="m80 80h16v16h-16zm0 0"/><path d="m48 80h16v16h-16zm0 0"/><path d="m16 80h16v16h-16zm0 0"/><path d="m336 80h16v16h-16zm0 0"/><path d="m368 80h16v16h-16zm0 0"/><path d="m400 80h16v16h-16zm0 0"/></svg>