<svg width="50" height="50" viewBox="0 0 50 50" fill="none" xmlns="http://www.w3.org/2000/svg">
<path d="M42.0732 25.733H46.2972C46.5861 26.4316 47.2743 26.9248 48.0761 26.9248C49.1374 26.9248 50.0008 26.0613 50.0008 25C50.0008 23.9387 49.1373 23.0752 48.0761 23.0752C47.2738 23.0752 46.5855 23.5689 46.2968 24.2681H42.0732V17.8618H46.2972C46.5861 18.5604 47.2743 19.0536 48.0761 19.0536C49.1374 19.0536 50.0008 18.1901 50.0008 17.1288C50.0008 16.0675 49.1373 15.2041 48.0761 15.2041C47.2738 15.2041 46.5855 15.6977 46.2968 16.3969H42.0732V8.66014C42.0732 8.25555 41.7452 7.92772 41.3407 7.92772H38.1949C37.7905 7.92772 37.4625 8.25555 37.4625 8.66014C37.4625 9.06473 37.7905 9.39256 38.1949 9.39256H40.6083V40.6075H9.39354V9.39256H35.3095C35.714 9.39256 36.0419 9.06473 36.0419 8.66014C36.0419 8.25555 35.714 7.92772 35.3095 7.92772H33.6054V3.7037C34.3038 3.41464 34.7968 2.72656 34.7968 1.9248C34.7968 0.863475 33.9333 0 32.8721 0C31.8109 0 30.9474 0.863475 30.9474 1.9248C30.9474 2.72714 31.4412 3.41572 32.1407 3.70429V7.92772H25.7344V3.70361C26.4329 3.41454 26.9258 2.72646 26.9258 1.9248C26.9256 0.863475 26.0623 0 25.0009 0C23.9396 0 23.0762 0.863475 23.0762 1.9248C23.0762 2.72724 23.5701 3.41572 24.2695 3.70439V7.92772H17.8632V3.70361C18.5616 3.41454 19.0546 2.72646 19.0546 1.9248C19.0546 0.863475 18.1911 0 17.1299 0C16.0686 0 15.205 0.863475 15.205 1.9248C15.205 2.72724 15.699 3.41581 16.3984 3.70439V7.92772H8.66112C8.25663 7.92772 7.9287 8.25555 7.9287 8.66014V16.3961H3.70468C3.41581 15.6973 2.72753 15.2042 1.92568 15.2042C0.864452 15.2041 0.000976562 16.0675 0.000976562 17.1288C0.000976562 18.1901 0.864452 19.0536 1.92568 19.0536C2.72783 19.0536 3.4162 18.5599 3.70497 17.8608H7.9286V24.267H3.70468C3.41572 23.5684 2.72753 23.0752 1.92568 23.0752C0.864452 23.0752 0.000976562 23.9387 0.000976562 25C0.000976562 26.0613 0.864452 26.9248 1.92568 26.9248C2.72783 26.9248 3.4163 26.4311 3.70497 25.7319H7.9286V32.1382H3.70468C3.41572 31.4396 2.72753 30.9464 1.92578 30.9464C0.864452 30.9464 0.000976562 31.8098 0.000976562 32.8712C0.000976562 33.9325 0.864452 34.7959 1.92568 34.7959C2.72792 34.7959 3.4163 34.3023 3.70497 33.6031H7.9286V41.3399C7.9286 41.7445 8.25653 42.0723 8.66102 42.0723H16.3964V46.2964C15.6979 46.5855 15.205 47.2735 15.205 48.0753C15.205 49.1365 16.0684 50 17.1297 50C18.1909 50 19.0544 49.1365 19.0544 48.0753C19.0544 47.273 18.5605 46.5844 17.8611 46.2958V42.0722H24.2673V46.2963C23.5689 46.5854 23.0759 47.2734 23.0759 48.0751C23.0759 49.1363 23.9394 49.9998 25.0006 49.9998C26.0619 49.9998 26.9253 49.1363 26.9253 48.0751C26.9253 47.2727 26.4315 46.5842 25.7321 46.2955V42.0722H32.1383V46.2964C31.44 46.5855 30.947 47.2735 30.947 48.0752C30.947 49.1364 31.8105 49.9999 32.8717 49.9999C33.9329 49.9999 34.7964 49.1364 34.7964 48.0752C34.7964 47.2728 34.3025 46.5842 33.6031 46.2956V42.0722H41.3403C41.7448 42.0722 42.0728 41.7444 42.0728 41.3398V33.6039H46.2967C46.5856 34.3027 47.2738 34.7958 48.0757 34.7958C49.137 34.7958 50.0004 33.9324 50.0004 32.8711C50.0004 31.8098 49.1369 30.9463 48.0757 30.9463C47.2735 30.9463 46.5852 31.44 46.2964 32.1391H42.0728L42.0732 25.733ZM48.0762 24.5401C48.3298 24.5401 48.536 24.7463 48.536 25C48.536 25.2536 48.3297 25.4599 48.0762 25.4599C47.8227 25.4599 47.6163 25.2536 47.6163 25C47.6163 24.7463 47.8226 24.5401 48.0762 24.5401ZM48.0762 16.6689C48.3298 16.6689 48.536 16.8752 48.536 17.1288C48.536 17.3824 48.3297 17.5887 48.0762 17.5887C47.8227 17.5887 47.6163 17.3824 47.6163 17.1288C47.6163 16.8752 47.8226 16.6689 48.0762 16.6689ZM32.8721 1.46484C33.1257 1.46484 33.332 1.67119 33.332 1.9248C33.332 2.17714 33.1275 2.38251 32.8755 2.38447C32.8746 2.38447 32.8739 2.38437 32.873 2.38437C32.8717 2.38437 32.8705 2.38457 32.8693 2.38457C32.617 2.383 32.4122 2.17753 32.4122 1.9249C32.4121 1.67119 32.6185 1.46484 32.8721 1.46484ZM25.0009 1.46484C25.2545 1.46484 25.4608 1.67119 25.4608 1.9248C25.4608 2.17714 25.2563 2.38252 25.0043 2.38437C25.0035 2.38437 25.0027 2.38427 25.0018 2.38427C25.0005 2.38427 24.9993 2.38447 24.998 2.38447C24.7458 2.38291 24.5409 2.17744 24.5409 1.9248C24.5411 1.67119 24.7473 1.46484 25.0009 1.46484ZM17.1298 1.46484C17.3834 1.46484 17.5896 1.67119 17.5896 1.9248C17.5896 2.17714 17.3851 2.38252 17.1332 2.38437C17.1324 2.38437 17.1315 2.38427 17.1307 2.38427C17.1295 2.38427 17.1282 2.38447 17.1269 2.38447C16.8747 2.38291 16.6698 2.17744 16.6698 1.9248C16.6699 1.67119 16.8762 1.46484 17.1298 1.46484ZM1.92568 17.5887C1.67207 17.5887 1.46582 17.3824 1.46582 17.1288C1.46582 16.8752 1.67216 16.6689 1.92568 16.6689C2.1792 16.6689 2.38554 16.8752 2.38554 17.1288C2.38554 17.3824 2.17929 17.5887 1.92568 17.5887ZM1.92568 25.4599C1.67207 25.4599 1.46582 25.2536 1.46582 25C1.46582 24.7463 1.67216 24.5401 1.92568 24.5401C2.1792 24.5401 2.38554 24.7463 2.38554 25C2.38554 25.2536 2.17929 25.4599 1.92568 25.4599ZM1.92568 33.3311C1.67207 33.3311 1.46582 33.1248 1.46582 32.8712C1.46582 32.6176 1.67216 32.4113 1.92568 32.4113C2.1792 32.4113 2.38554 32.6176 2.38554 32.8712C2.38554 33.1248 2.17929 33.3311 1.92568 33.3311ZM17.1298 48.5351C16.8761 48.5351 16.6699 48.3288 16.6699 48.0752C16.6699 47.8226 16.8748 47.6171 17.127 47.6155C17.1277 47.6155 17.1283 47.6156 17.129 47.6156C17.13 47.6156 17.131 47.6155 17.1321 47.6155C17.3846 47.6167 17.5898 47.8225 17.5898 48.0753C17.5897 48.3288 17.3834 48.5351 17.1298 48.5351ZM25.0009 48.5351C24.7473 48.5351 24.5411 48.3288 24.5411 48.0752C24.5411 47.8226 24.7459 47.6171 24.9981 47.6155C24.9987 47.6155 24.9994 47.6156 25 47.6156C25.001 47.6156 25.002 47.6155 25.0031 47.6154C25.2556 47.6166 25.4608 47.8224 25.4608 48.0752C25.4608 48.3288 25.2545 48.5351 25.0009 48.5351ZM32.8721 48.5351C32.6185 48.5351 32.4122 48.3288 32.4122 48.0752C32.4122 47.8226 32.617 47.6171 32.8693 47.6155C32.8699 47.6155 32.8704 47.6156 32.8711 47.6156C32.8722 47.6156 32.8733 47.6155 32.8744 47.6154C33.1269 47.6166 33.3321 47.8224 33.3321 48.0752C33.332 48.3288 33.1256 48.5351 32.8721 48.5351ZM48.0762 32.4113C48.3298 32.4113 48.536 32.6176 48.536 32.8712C48.536 33.1248 48.3297 33.3311 48.0762 33.3311C47.8227 33.3311 47.6163 33.1248 47.6163 32.8712C47.6163 32.6176 47.8226 32.4113 48.0762 32.4113Z" fill="white"/>
<path d="M38.9224 10.3455H11.0781C10.6736 10.3455 10.3457 10.6733 10.3457 11.0779V31.421C10.3457 31.8256 10.6736 32.1534 11.0781 32.1534C11.4826 32.1534 11.8105 31.8256 11.8105 31.421V11.8103H38.19V38.1897H11.8105V34.3064C11.8105 33.9019 11.4826 33.574 11.0781 33.574C10.6736 33.574 10.3457 33.9019 10.3457 34.3064V38.9222C10.3457 39.3268 10.6736 39.6546 11.0781 39.6546H38.9224C39.3269 39.6546 39.6548 39.3268 39.6548 38.9222V11.0779C39.6548 10.6733 39.3269 10.3455 38.9224 10.3455Z" fill="white"/>
<path d="M30.0117 19.2562H19.9888C19.5843 19.2562 19.2563 19.5841 19.2563 19.9886V30.0115C19.2563 30.4161 19.5843 30.7439 19.9888 30.7439H23.8504C24.2549 30.7439 24.5828 30.4161 24.5828 30.0115C24.5828 29.6069 24.2549 29.279 23.8504 29.279H20.7212V20.7211H29.2793V29.279H26.736C26.3315 29.279 26.0036 29.6069 26.0036 30.0115C26.0036 30.4161 26.3315 30.7439 26.736 30.7439H30.0117C30.4162 30.7439 30.7441 30.4161 30.7441 30.0115V19.9886C30.7441 19.5841 30.4162 19.2562 30.0117 19.2562Z" fill="white"/>
<path d="M15.9364 14.0251H14.7573C14.3528 14.0251 14.0249 14.353 14.0249 14.7576V15.9366C14.0249 16.3412 14.3528 16.669 14.7573 16.669H15.9364C16.3409 16.669 16.6688 16.3412 16.6688 15.9366V14.7576C16.6688 14.353 16.3409 14.0251 15.9364 14.0251Z" fill="white"/>
<path d="M19.7977 14.0251H18.6187C18.2142 14.0251 17.8862 14.353 17.8862 14.7576V15.9366C17.8862 16.3412 18.2142 16.669 18.6187 16.669H19.7977C20.2021 16.669 20.5301 16.3412 20.5301 15.9366V14.7576C20.5301 14.3531 20.2021 14.0251 19.7977 14.0251Z" fill="white"/>
<path d="M23.659 14.0251H22.48C22.0755 14.0251 21.7476 14.353 21.7476 14.7576V15.9366C21.7476 16.3412 22.0755 16.669 22.48 16.669H23.659C24.0635 16.669 24.3914 16.3412 24.3914 15.9366V14.7576C24.3914 14.353 24.0635 14.0251 23.659 14.0251Z" fill="white"/>
<path d="M27.5203 14.0251H26.3413C25.9368 14.0251 25.6089 14.353 25.6089 14.7576V15.9366C25.6089 16.3412 25.9368 16.669 26.3413 16.669H27.5203C27.9248 16.669 28.2527 16.3412 28.2527 15.9366V14.7576C28.2527 14.353 27.9248 14.0251 27.5203 14.0251Z" fill="white"/>
<path d="M31.3816 14.0251H30.2026C29.7981 14.0251 29.4702 14.353 29.4702 14.7576V15.9366C29.4702 16.3412 29.7981 16.669 30.2026 16.669H31.3816C31.7861 16.669 32.1141 16.3412 32.1141 15.9366V14.7576C32.1141 14.353 31.7861 14.0251 31.3816 14.0251Z" fill="white"/>
<path d="M35.2426 14.0251H34.0635C33.659 14.0251 33.3311 14.353 33.3311 14.7576V15.9366C33.3311 16.3412 33.659 16.669 34.0635 16.669H35.2426C35.6471 16.669 35.975 16.3412 35.975 15.9366V14.7576C35.975 14.353 35.6471 14.0251 35.2426 14.0251Z" fill="white"/>
<path d="M15.9364 33.3311H14.7573C14.3528 33.3311 14.0249 33.6589 14.0249 34.0635V35.2425C14.0249 35.6471 14.3528 35.9749 14.7573 35.9749H15.9364C16.3409 35.9749 16.6688 35.6471 16.6688 35.2425V34.0635C16.6688 33.6589 16.3409 33.3311 15.9364 33.3311Z" fill="white"/>
<path d="M19.7977 33.3311H18.6187C18.2142 33.3311 17.8862 33.6589 17.8862 34.0635V35.2425C17.8862 35.6471 18.2142 35.9749 18.6187 35.9749H19.7977C20.2021 35.9749 20.5301 35.6471 20.5301 35.2425V34.0635C20.5301 33.6589 20.2021 33.3311 19.7977 33.3311Z" fill="white"/>
<path d="M23.659 33.3311H22.48C22.0755 33.3311 21.7476 33.6589 21.7476 34.0635V35.2425C21.7476 35.6471 22.0755 35.9749 22.48 35.9749H23.659C24.0635 35.9749 24.3914 35.6471 24.3914 35.2425V34.0635C24.3914 33.6589 24.0635 33.3311 23.659 33.3311Z" fill="white"/>
<path d="M27.5203 33.3311H26.3413C25.9368 33.3311 25.6089 33.6589 25.6089 34.0635V35.2425C25.6089 35.6471 25.9368 35.9749 26.3413 35.9749H27.5203C27.9248 35.9749 28.2527 35.6471 28.2527 35.2425V34.0635C28.2527 33.6589 27.9248 33.3311 27.5203 33.3311Z" fill="white"/>
<path d="M31.3816 33.3311H30.2026C29.7981 33.3311 29.4702 33.6589 29.4702 34.0635V35.2425C29.4702 35.6471 29.7981 35.9749 30.2026 35.9749H31.3816C31.7861 35.9749 32.1141 35.6471 32.1141 35.2425V34.0635C32.1141 33.6589 31.7861 33.3311 31.3816 33.3311Z" fill="white"/>
<path d="M35.2426 33.3311H34.0635C33.659 33.3311 33.3311 33.6589 33.3311 34.0635V35.2425C33.3311 35.6471 33.659 35.9749 34.0635 35.9749H35.2426C35.6471 35.9749 35.975 35.6471 35.975 35.2425V34.0635C35.975 33.6589 35.6471 33.3311 35.2426 33.3311Z" fill="white"/>
<path d="M15.9364 17.8864H14.7573C14.3528 17.8864 14.0249 18.2142 14.0249 18.6188V19.7978C14.0249 20.2024 14.3528 20.5302 14.7573 20.5302H15.9364C16.3409 20.5302 16.6688 20.2024 16.6688 19.7978V18.6188C16.6688 18.2142 16.3409 17.8864 15.9364 17.8864Z" fill="white"/>
<path d="M15.9364 21.7474H14.7573C14.3528 21.7474 14.0249 22.0753 14.0249 22.4799V23.6589C14.0249 24.0634 14.3528 24.3913 14.7573 24.3913H15.9364C16.3409 24.3913 16.6688 24.0634 16.6688 23.6589V22.4799C16.6688 22.0753 16.3409 21.7474 15.9364 21.7474Z" fill="white"/>
<path d="M15.9364 25.6088H14.7573C14.3528 25.6088 14.0249 25.9366 14.0249 26.3412V27.5202C14.0249 27.9248 14.3528 28.2526 14.7573 28.2526H15.9364C16.3409 28.2526 16.6688 27.9248 16.6688 27.5202V26.3412C16.6688 25.9366 16.3409 25.6088 15.9364 25.6088Z" fill="white"/>
<path d="M15.9364 29.4698H14.7573C14.3528 29.4698 14.0249 29.7977 14.0249 30.2023V31.3814C14.0249 31.786 14.3528 32.1138 14.7573 32.1138H15.9364C16.3409 32.1138 16.6688 31.786 16.6688 31.3814V30.2023C16.6688 29.7977 16.3409 29.4698 15.9364 29.4698Z" fill="white"/>
<path d="M35.2426 17.8864H34.0635C33.659 17.8864 33.3311 18.2142 33.3311 18.6188V19.7978C33.3311 20.2024 33.659 20.5302 34.0635 20.5302H35.2426C35.6471 20.5302 35.975 20.2024 35.975 19.7978V18.6188C35.975 18.2142 35.6471 17.8864 35.2426 17.8864Z" fill="white"/>
<path d="M35.2426 21.7474H34.0635C33.659 21.7474 33.3311 22.0753 33.3311 22.4799V23.6589C33.3311 24.0634 33.659 24.3913 34.0635 24.3913H35.2426C35.6471 24.3913 35.975 24.0634 35.975 23.6589V22.4799C35.975 22.0753 35.6471 21.7474 35.2426 21.7474Z" fill="white"/>
<path d="M35.2426 25.6088H34.0635C33.659 25.6088 33.3311 25.9366 33.3311 26.3412V27.5202C33.3311 27.9248 33.659 28.2526 34.0635 28.2526H35.2426C35.6471 28.2526 35.975 27.9248 35.975 27.5202V26.3412C35.975 25.9366 35.6471 25.6088 35.2426 25.6088Z" fill="white"/>
<path d="M35.2426 29.4698H34.0635C33.659 29.4698 33.3311 29.7977 33.3311 30.2023V31.3814C33.3311 31.786 33.659 32.1138 34.0635 32.1138H35.2426C35.6471 32.1138 35.975 31.786 35.975 31.3814V30.2023C35.975 29.7977 35.6471 29.4698 35.2426 29.4698Z" fill="white"/>
</svg>
