<svg width="31" height="31" viewBox="0 0 31 31" fill="none" xmlns="http://www.w3.org/2000/svg">
<path d="M11.3365 19.2809H9.51863C8.95242 19.2809 8.4917 18.8204 8.4917 18.2539V17.2407C8.4917 17.1809 8.44936 17.1291 8.38669 17.1118C7.75639 16.9401 7.14855 16.6875 6.58022 16.3614C6.52866 16.3318 6.46787 16.3377 6.42932 16.3763L5.7056 17.1C5.51166 17.2939 5.25386 17.4006 4.97951 17.4006C4.70539 17.4006 4.44736 17.2939 4.25342 17.1L2.96798 15.8146C2.77404 15.6206 2.66714 15.3626 2.66714 15.0885C2.66714 14.8141 2.77404 14.5561 2.96798 14.3624L3.69147 13.6387C3.73026 13.6001 3.73617 13.5393 3.70637 13.4878C3.38046 12.9194 3.12786 12.3116 2.95615 11.6813C2.93889 11.6186 2.88709 11.5763 2.82726 11.5763H1.81404C1.24783 11.5763 0.787109 11.1156 0.787109 10.5493V8.73152C0.787109 8.16531 1.24783 7.70459 1.81404 7.70459H2.82726C2.88709 7.70459 2.93889 7.66249 2.95615 7.59958C3.12786 6.96951 3.38046 6.36168 3.7066 5.79311C3.73617 5.74155 3.73026 5.68076 3.6917 5.64221L2.96798 4.91849C2.77404 4.72478 2.66714 4.46675 2.66714 4.1924C2.66714 3.91828 2.77404 3.66025 2.96798 3.46631L4.25342 2.18087C4.44736 1.98693 4.70515 1.88026 4.97951 1.88026C5.25386 1.88026 5.51189 1.98693 5.70583 2.18111L6.42932 2.90459C6.46787 2.94315 6.52842 2.94906 6.58022 2.91949C7.14855 2.59335 7.75615 2.34099 8.38645 2.16904C8.4496 2.15178 8.4917 2.09998 8.4917 2.04015V1.02693C8.4917 0.460724 8.95242 0 9.51863 0H11.3365C11.9027 0 12.3634 0.460724 12.3634 1.02693V2.04015C12.3634 2.09998 12.4055 2.15178 12.4684 2.16881C13.0985 2.34075 13.7063 2.59335 14.2746 2.91949C14.3264 2.94906 14.387 2.94315 14.4258 2.90459L15.1493 2.18087C15.5506 1.77975 16.2003 1.77951 16.6017 2.18111L16.7377 2.3171C17.1622 2.7414 16.5205 3.38424 16.0955 2.95923C16.0118 2.88686 15.9044 2.71018 15.7916 2.82323L15.0679 3.54672C14.7406 3.87405 14.2285 3.94004 13.8227 3.70708C13.3213 3.41948 12.7851 3.19669 12.2295 3.04508C11.7735 2.92091 11.4549 2.50749 11.4549 2.03991V1.02693C11.4549 0.961418 11.4017 0.908203 11.3362 0.908203H9.5184C9.45312 0.908203 9.3999 0.961418 9.3999 1.02693V2.04015C9.3999 2.50773 9.08132 2.92091 8.62533 3.04532C8.06953 3.19692 7.53336 3.41948 7.03195 3.70708C6.62634 3.94004 6.11429 3.87405 5.78696 3.54672L5.06347 2.82323C5.03461 2.79438 5.00198 2.78847 4.97951 2.78847C4.95704 2.78847 4.9244 2.79438 4.89578 2.82323L3.61011 4.10867C3.58149 4.13729 3.57534 4.17017 3.57534 4.1924C3.57534 4.21487 3.58149 4.24774 3.61011 4.27636L4.33383 5.00008C4.66116 5.32742 4.72715 5.83923 4.49419 6.24508C4.20659 6.74672 3.9838 7.28265 3.83219 7.83846C3.70802 8.29445 3.2946 8.61279 2.82726 8.61279H1.81404C1.74853 8.61279 1.69531 8.66624 1.69531 8.73152V10.5493C1.69531 10.6149 1.74853 10.6681 1.81404 10.6681H2.82726C3.2946 10.6681 3.70802 10.9864 3.83243 11.4424C3.9838 11.9985 4.20659 12.5344 4.49419 13.0358C4.72715 13.4416 4.66116 13.9535 4.33383 14.2808L3.61034 15.0045C3.58149 15.0331 3.57558 15.066 3.57558 15.0885C3.57558 15.1107 3.58173 15.1436 3.61034 15.1724L4.89578 16.4576C4.94214 16.504 5.01735 16.5042 5.06371 16.4576L5.78719 15.7341C6.11453 15.4068 6.62657 15.3408 7.03243 15.5738C7.53383 15.8614 8.06976 16.0842 8.62557 16.2358C9.08156 16.36 9.40014 16.7734 9.40014 17.241V18.2539C9.40014 18.3195 9.45335 18.3727 9.51863 18.3727H11.3365C11.402 18.3727 11.4552 18.3195 11.4552 18.2539V17.241C11.4552 16.7734 11.7738 16.36 12.2298 16.2358C12.8099 16.0778 13.0479 16.9541 12.4686 17.1118C12.4057 17.1291 12.3634 17.1809 12.3634 17.241V18.2539C12.3634 18.8201 11.9027 19.2809 11.3365 19.2809V19.2809Z" fill="white"/>
<path d="M6.14746 9.64043C6.14746 6.63769 9.16677 4.57933 11.9491 5.63937C12.5099 5.85341 12.1875 6.70225 11.6255 6.48821C9.42977 5.6512 7.05543 7.28123 7.05543 9.64043C7.05543 11.5595 8.67175 13.1209 10.6286 13.0062C11.227 12.97 11.2831 13.8775 10.6821 13.913C8.21457 14.0582 6.14746 12.0905 6.14746 9.64043Z" fill="white"/>
<path d="M25.9165 20.1652L21.3154 19.2705V18.1336C22.6074 17.2521 23.307 16.0038 23.4593 14.6017C24.1301 14.5485 24.6594 13.9859 24.6594 13.3019V12.3686C25.7528 11.8932 25.6052 10.2975 24.4484 10.0283V9.66811C24.4484 6.42956 21.8229 3.80405 18.5846 3.80405H18.0929C14.8543 3.80405 12.2291 6.42956 12.2291 9.66787V10.0283C11.0728 10.2972 10.9242 11.8932 12.0181 12.3686V13.3019C12.0181 13.9859 12.5474 14.5485 13.2182 14.6017C13.3511 15.825 13.9244 16.9446 14.8288 17.7232C15.0019 17.8724 15.1798 18.0091 15.3621 18.1336V19.2705L10.761 20.1652C8.3335 20.6373 6.44141 22.0057 6.44141 24.5307V29.1495C6.44141 30.1715 7.26991 31 8.29187 31H28.3856C29.4076 31 30.2361 30.1715 30.2361 29.1495V24.5307C30.2361 22.014 28.3556 20.6394 25.9165 20.1652V20.1652ZM22.1368 20.3553C21.8071 20.8347 21.3031 21.5665 20.7586 22.3546C20.5368 22.676 20.1387 22.7169 19.9831 22.6237L19.2658 22.1935C19.9654 21.7803 20.9334 21.0708 21.2271 20.1784L22.1368 20.3553ZM18.3386 21.664C17.649 21.3168 16.2741 20.4589 16.2703 19.6482C16.2703 19.647 16.2703 19.6458 16.2703 19.6446V18.635C17.592 19.2049 19.0839 19.2057 20.4072 18.635V19.6446C20.4072 20.4568 19.029 21.3165 18.3386 21.664ZM13.1373 9.66787C13.1373 7.80511 14.1704 6.17909 15.6937 5.33286V5.90214C15.6937 6.5024 16.6019 6.50335 16.6019 5.90214V4.94143C17.0094 4.81253 17.4394 4.73519 17.8845 4.71674V6.96218C17.8845 7.56245 18.7927 7.56339 18.7927 6.96218V4.71674C19.2378 4.73519 19.6681 4.81253 20.0756 4.94143V5.90214C20.0756 6.5024 20.9838 6.50335 20.9838 5.90214V5.33286C22.5071 6.17909 23.5402 7.80511 23.5402 9.66787V9.99615H13.1373V9.66787ZM12.5096 10.9044H24.1679C24.6031 10.9044 24.6026 11.5621 24.1679 11.5621H12.5096C12.0742 11.5621 12.0746 10.9044 12.5096 10.9044V10.9044ZM14.0975 14.142C14.0923 13.895 13.8906 13.6975 13.6434 13.6975C13.5677 13.6789 12.9261 13.8156 12.9261 13.3019V12.4705H23.7512V13.3019C23.7512 13.8146 23.0925 13.6831 23.0339 13.6975C22.7869 13.6975 22.5852 13.895 22.5798 14.142C22.5554 15.2772 22.0729 16.3316 21.2562 17.035C19.5219 18.5283 17.1556 18.5285 15.4213 17.035C14.6044 16.3316 14.1219 15.2772 14.0975 14.142ZM15.4501 20.1784C15.7441 21.0708 16.7119 21.7803 17.4117 22.1935C16.6927 22.5785 16.7436 22.6937 16.417 22.6552C16.2138 22.6308 16.0315 22.5178 15.9151 22.3494C15.3721 21.5632 14.8697 20.8336 14.5405 20.3553L15.4501 20.1784ZM10.2107 30.0918H8.29163C7.77131 30.0918 7.34937 29.6699 7.34937 29.1495V24.5307C7.34937 23.1698 7.96761 22.229 9.32377 21.579C9.37864 21.8208 10.2107 24.0792 10.2107 27.235V30.0918ZM17.8845 30.0918H11.1189V27.235C11.1189 23.8157 10.2556 21.6141 10.1707 21.2413C10.701 21.0651 10.3072 21.2009 13.5684 20.5443C14.5057 21.9064 16.255 24.4477 17.2862 25.9134C17.6778 26.4699 17.8845 27.1236 17.8845 27.804V30.0918ZM18.3386 25.9048C18.2483 25.7277 18.1449 25.556 18.029 25.3909C17.6804 24.8956 17.228 24.2457 16.7559 23.5643C16.8961 23.5333 17.0331 23.4794 17.1615 23.4025L18.3386 22.6966L19.516 23.4025C19.6442 23.4794 19.7813 23.5333 19.9216 23.5643C19.4495 24.2452 18.9971 24.8952 18.6485 25.3909C18.5323 25.556 18.429 25.7277 18.3386 25.9048V25.9048ZM29.3279 29.1495C29.3279 29.6699 28.9062 30.0918 28.3856 30.0918H26.4666V28.3785C26.4666 27.7782 25.5584 27.7773 25.5584 28.3785V30.0918H18.7927V27.804C18.7927 27.1236 18.9997 26.4699 19.3911 25.9136C19.9777 25.0799 22.3927 21.5949 23.1091 20.5443C26.3687 21.2006 25.9756 21.0649 26.5065 21.2413C26.4406 21.5206 25.6764 23.5974 25.5709 26.5434C25.5491 27.1451 26.4569 27.1747 26.4784 26.5761C26.5806 23.7252 27.2799 21.8908 27.3535 21.579C28.7096 22.229 29.3279 23.1698 29.3279 24.5305V29.1495Z" fill="white"/>
</svg>
