<svg width="30" height="23" viewBox="0 0 30 23" fill="none" xmlns="http://www.w3.org/2000/svg">
<path d="M4.82191 0H29.4638C29.7647 0.00546697 30.0053 0.257131 29.9999 0.563517V17.8739C29.9999 18.1748 29.7647 18.4375 29.4638 18.4375H21.7931V20.79H23.1282C23.4291 20.79 23.6752 21.0362 23.6752 21.3371C23.6752 21.638 23.4291 21.8842 23.1282 21.8842H16.5201C16.6532 21.5288 16.7666 21.1636 16.8582 20.79H20.699V18.4375H17.1428C17.1428 18.4345 17.1428 18.4315 17.1428 18.4285C17.1428 18.0617 17.1228 17.6996 17.0838 17.3432H28.9055V1.09421H5.38022V8.75542C5.00731 8.82843 4.64236 8.92247 4.28578 9.03623V0.563517C4.28034 0.257131 4.52099 0.00546697 4.82191 0Z" fill="white"/>
<path d="M16.9252 16.3584H27.4285C27.7294 16.3584 27.9755 16.1122 27.9755 15.8113V2.40727C27.9755 2.10635 27.7294 1.86016 27.4285 1.86016H6.80237C6.50187 1.86016 6.25535 2.10635 6.25535 2.40727V8.62458C6.59394 8.5894 6.93797 8.57138 7.28576 8.57138C7.30711 8.57138 7.32845 8.57146 7.3498 8.57159V2.95436H26.9359V15.2642H16.6239C16.7444 15.6203 16.8457 15.9855 16.9252 16.3584Z" fill="white"/>
<path fill-rule="evenodd" clip-rule="evenodd" d="M25.3493 9.2406C25.284 9.12025 25.1743 9.02723 25.0429 8.978L18.3792 6.65828C18.095 6.55979 17.7828 6.70751 17.6844 6.99746C17.6463 7.11238 17.6463 7.23819 17.6844 7.35857L20.0043 14.0223C20.0754 14.2302 20.2613 14.3725 20.4802 14.3889H20.5241C20.7262 14.3889 20.9125 14.274 21.0054 14.0989L21.8479 12.5013L22.9532 13.5956C23.1667 13.8089 23.5111 13.8089 23.7246 13.5956L24.6219 12.6983C24.8353 12.4849 24.8353 12.1403 24.6219 11.9269L23.5274 10.8217L25.1195 9.97919C25.3878 9.83694 25.4916 9.50869 25.3493 9.2406ZM22.1568 10.979L22.1714 10.9989C22.1894 11.023 22.2095 11.0463 22.2308 11.0679L23.4617 12.3099L23.3362 12.4357L22.094 11.2047C21.881 10.9913 21.5307 10.9913 21.3226 11.2102L21.3021 11.2321C21.2942 11.2411 21.2862 11.2505 21.2791 11.2601L21.2691 11.2736L21.2561 11.2929L21.2431 11.3146C21.2381 11.3234 21.2339 11.3323 21.2297 11.3415L20.6279 12.4795L19.0907 8.06433L23.5002 9.60171L22.3623 10.2035C22.094 10.3458 21.9902 10.674 22.1325 10.9421C22.14 10.9545 22.148 10.9668 22.1568 10.979Z" fill="white"/>
<path d="M17.2194 5.42729L17.2249 5.43276C17.4383 5.64613 17.4383 5.99081 17.2249 6.20418C17.0114 6.41755 16.667 6.41755 16.4535 6.20418L15.66 5.41086L15.6546 5.4054C15.4415 5.19203 15.4415 4.84735 15.6546 4.63398C15.868 4.42061 16.2129 4.42061 16.4263 4.63398L17.2194 5.42729Z" fill="white"/>
<path d="M19.4351 5.48199V5.47105L19.2053 4.25647C19.1505 3.96104 18.8663 3.75861 18.5708 3.81333C18.2754 3.86803 18.0728 4.15252 18.1276 4.44797V4.45891L18.3574 5.67349C18.4122 5.96891 18.6964 6.17135 18.9919 6.11663C19.2874 6.06193 19.4899 5.77744 19.4351 5.48199Z" fill="white"/>
<path d="M15.4851 7.10141L16.6996 7.33121C16.9951 7.3914 17.1922 7.67589 17.1374 7.97132C17.0826 8.27224 16.7925 8.46371 16.4971 8.40902L15.2825 8.17922C14.9816 8.12452 14.7903 7.83454 14.8451 7.53911C14.8996 7.23819 15.1896 7.04672 15.4851 7.10141Z" fill="white"/>
<path d="M14.2976 14.9975L7.46675 12.0375C7.35122 11.9874 7.22013 11.9874 7.1046 12.0375L0.273777 14.9975C-0.0912164 15.1557 -0.0913018 15.675 0.273777 15.8332L2.73179 16.8983V19.7415C2.73179 21.2737 4.73209 22.4738 7.28568 22.4738C9.83927 22.4738 11.8396 21.2737 11.8396 19.7415V16.8983L12.2949 16.701V21.5631C12.2949 21.8146 12.4988 22.0185 12.7503 22.0185C13.0018 22.0185 13.2057 21.8146 13.2057 21.5631V16.3063L14.2976 15.8332C14.6626 15.675 14.6626 15.1557 14.2976 14.9975ZM7.28568 12.9516L12.9712 15.4153L12.5203 15.6107L7.34214 14.9635C7.09256 14.9325 6.86498 15.1093 6.83379 15.3589C6.80259 15.6084 6.97963 15.836 7.22918 15.8672L10.8763 16.3231L7.28568 17.8791C4.07357 16.4871 4.7577 16.7836 1.60018 15.4153L7.28568 12.9516ZM10.9288 19.7415C10.9288 20.1706 10.5766 20.6124 9.96259 20.9535C8.5002 21.7659 6.07542 21.7683 4.60876 20.9535C3.99473 20.6124 3.64257 20.1706 3.64257 19.7415V17.293L7.1046 18.7932C7.21993 18.8432 7.351 18.8434 7.46675 18.7932L10.9288 17.293V19.7415Z" fill="white"/>
</svg>
